<?xml version="1.0" ?><svg data-name="Layer 1" id="Layer_1" viewBox="0 0 512 512" xmlns="http://www.w3.org/2000/svg"><title/><path d="M464.37,343.43H314.13c-4.59-54.1-18.25-76.25-29.07-85.22a32.06,32.06,0,0,0-3.87-2.74,48.79,48.79,0,1,0-50.38,0,31.29,31.29,0,0,0-3.87,2.74c-10.82,9-24.49,31.12-29.07,85.22H175.13V324.14a4.35,4.35,0,0,0-4.35-4.35H115.5V295.86l38.49-19a17.55,17.55,0,1,0-5.1-12.35,17.25,17.25,0,0,0,.75,4.79l-40.42,19.95a4.36,4.36,0,0,0-2.42,3.9v26.64H88.35A4.35,4.35,0,0,0,84,324.14v19.29H47.63a4.35,4.35,0,0,0-4.35,4.35V382.6A4.35,4.35,0,0,0,47.63,387H70.71v83.92a4.35,4.35,0,1,0,8.7,0V387H432.59v83.92a4.35,4.35,0,1,0,8.7,0V387h23.08a4.35,4.35,0,0,0,4.35-4.35V347.78A4.35,4.35,0,0,0,464.37,343.43ZM166.45,255.65a8.86,8.86,0,1,1-8.86,8.86A8.86,8.86,0,0,1,166.45,255.65Zm49.46-41.89a40.09,40.09,0,1,1,53,37.9c-.33,0-.57,0-.68,0a4.17,4.17,0,0,0-1.86.74A40.25,40.25,0,0,1,256,253.85a39.73,39.73,0,0,1-10.4-1.42,4.2,4.2,0,0,0-1.88-.74c-.11,0-.35,0-.68,0A40.14,40.14,0,0,1,215.91,213.76Zm25.89,46.67a48.58,48.58,0,0,0,28.39,0c5.18.71,28.77,8,35.24,83H206.57C213,268.4,236.61,261.14,241.8,260.43ZM92.7,328.49h73.73v14.94H92.7ZM460,378.25H52V352.14H460Z" style="fill:#231f20"/><path d="M268.28,153.25h83v35.28a4.34,4.34,0,0,0,2.69,4,4.2,4.2,0,0,0,1.66.33,4.36,4.36,0,0,0,3.08-1.27l52.68-52.7a58.2,58.2,0,0,0-38.2-102.14H268.28a58.24,58.24,0,1,0,0,116.48Zm0-107.77H373.17a49.5,49.5,0,0,1,32.27,87.07L360,178V148.9a4.35,4.35,0,0,0-4.35-4.35H268.28a49.54,49.54,0,1,1,0-99.07Z" style="fill:#231f20"/><path d="M267.06,107.21c6.95,0,11.28-5.08,11.28-11.84,0-7-4.51-11.84-11.09-11.84S256,88.42,256,95.37C256,102.13,260.49,107.21,267.06,107.21Z" style="fill:#231f20"/><path d="M320.63,107.21c6.95,0,11.28-5.08,11.28-11.84,0-7-4.51-11.84-11.09-11.84s-11.27,4.89-11.27,11.84C309.55,102.13,314.06,107.21,320.63,107.21Z" style="fill:#231f20"/><path d="M374.2,107.21c6.95,0,11.28-5.08,11.28-11.84,0-7-4.51-11.84-11.09-11.84s-11.27,4.89-11.27,11.84C363.12,102.13,367.63,107.21,374.2,107.21Z" style="fill:#231f20"/></svg>