<?xml version="1.0" ?><svg data-name="Layer 1" id="Layer_1" viewBox="0 0 512 512" xmlns="http://www.w3.org/2000/svg"><title/><path d="M443.84,306.42a4.36,4.36,0,0,0-3.15-1.35h-26c-4.89-30.72-14-52.13-27.12-63.65A44.15,44.15,0,1,0,315.78,229l-43.59-24.47A18.64,18.64,0,0,0,253.93,237l60.5,34c-3.25,8.55-6.2,20.78-8.22,34.07H275.88a4.36,4.36,0,0,0-4.34,4.54l6.81,155.63a4.39,4.39,0,0,0,4.54,4.16,4.35,4.35,0,0,0,4.15-4.53l-6.61-151.09H436.15l-6.61,151.09a4.35,4.35,0,0,0,4.15,4.53h.19a4.36,4.36,0,0,0,4.35-4.17L445,309.61A4.34,4.34,0,0,0,443.84,306.42ZM355.9,175.3a35.43,35.43,0,1,1-35.43,35.42A35.46,35.46,0,0,1,355.9,175.3Zm-32,95.59a4.86,4.86,0,0,0,.15-.66,4.17,4.17,0,0,0,.19-.85,4.36,4.36,0,0,0-.06-.81,5.4,5.4,0,0,0-.14-.82,4,4,0,0,0-.38-.74,3.55,3.55,0,0,0-.43-.7,4,4,0,0,0-.66-.57,4.23,4.23,0,0,0-.51-.44l-63.86-35.86a9.94,9.94,0,0,1,2.18-18.24,9.84,9.84,0,0,1,7.56.91l68,38.19a4.43,4.43,0,0,0,1.65.53,43.8,43.8,0,0,0,43.27-3.75l.2.15c11.61,9.62,20.1,29.63,24.77,57.84H389.4c-1-5.84-2-10.66-2.92-14.24a4.35,4.35,0,0,0-8.42,2.21c.81,3,1.65,7.09,2.51,12H315C317.22,291,320.46,278.47,323.89,270.89Z" style="fill:#231f20"/><path d="M422.62,260.08a4.35,4.35,0,1,0,8.7,0V47A4.36,4.36,0,0,0,427,42.59H71.31A4.36,4.36,0,0,0,67,47v318a4.36,4.36,0,0,0,8.71,0V51.3h347Z" style="fill:#231f20"/><path d="M300.91,95a4.36,4.36,0,0,0,0-8.71H197.36a4.36,4.36,0,0,0,0,8.71Z" style="fill:#231f20"/><path d="M105.53,140.44a4.35,4.35,0,0,0,4.35,4.35H388.39a4.36,4.36,0,0,0,0-8.71H109.88A4.36,4.36,0,0,0,105.53,140.44Z" style="fill:#231f20"/><path d="M230.14,232.09h-21.7V181.53a4.35,4.35,0,0,0-4.35-4.35H109.88a4.35,4.35,0,0,0-4.35,4.35v78.55a4.35,4.35,0,0,0,4.35,4.35h26v50.34a4.35,4.35,0,0,0,4.35,4.35h89.95a4.35,4.35,0,0,0,4.35-4.35V236.45A4.36,4.36,0,0,0,230.14,232.09ZM114.23,255.73V185.89h85.51v46.2H140.19a4.36,4.36,0,0,0-4.35,4.36v19.28Zm111.56,54.69H144.55V240.8h81.24Z" style="fill:#231f20"/></svg>